<svg preserveAspectRatio="none" overflow="visible" style="display: block;" width="21.784" height="21.784" viewBox="0 0 21.784 21.784" fill="none" xmlns="http://www.w3.org/2000/svg">
<g id="database">
<path id="Vector" d="M19.0618 4.53777C19.0618 6.04177 15.4044 7.261 10.8928 7.261C6.38114 7.261 2.72375 6.04177 2.72375 4.53777M19.0618 4.53777C19.0618 3.03378 15.4044 1.81455 10.8928 1.81455C6.38114 1.81455 2.72375 3.03378 2.72375 4.53777M19.0618 4.53777V17.2461C19.0618 17.9684 18.2011 18.6611 16.6691 19.1718C15.1371 19.6825 13.0593 19.9694 10.8928 19.9694C8.7262 19.9694 6.64838 19.6825 5.11639 19.1718C3.58441 18.6611 2.72375 17.9684 2.72375 17.2461V4.53777M2.72375 10.892C2.72375 11.6142 3.58441 12.3069 5.11639 12.8176C6.64838 13.3283 8.7262 13.6152 10.8928 13.6152C13.0593 13.6152 15.1371 13.3283 16.6691 12.8176C18.2011 12.3069 19.0618 11.6142 19.0618 10.892" stroke="white" stroke-width="1.81534" stroke-linecap="round"/>
</g>
</svg>
