<svg preserveAspectRatio="none" overflow="visible" style="display: block;" width="36.2129" height="36.2129" viewBox="0 0 36.2129 36.2129" fill="none" xmlns="http://www.w3.org/2000/svg">
<g id="instagram-logo-fill-svgrepo-com 1">
<path id="Vector" d="M23.355 17.8523C23.355 18.9282 23.036 19.98 22.4382 20.8746C21.8405 21.7692 20.9909 22.4665 19.9968 22.8782C19.0028 23.2899 17.909 23.3977 16.8537 23.1878C15.7985 22.9779 14.8292 22.4598 14.0684 21.699C13.3076 20.9382 12.7895 19.9688 12.5796 18.9136C12.3697 17.8583 12.4774 16.7645 12.8891 15.7705C13.3009 14.7765 13.9981 13.9269 14.8927 13.3291C15.7873 12.7313 16.8391 12.4123 17.915 12.4123C19.3573 12.4139 20.74 12.9876 21.7599 14.0075C22.7797 15.0273 23.3534 16.41 23.355 17.8523ZM34.915 10.3723V25.3323C34.9122 27.8563 33.9083 30.2761 32.1235 32.0608C30.3388 33.8455 27.919 34.8494 25.395 34.8523H10.435C7.91106 34.8494 5.49127 33.8455 3.70654 32.0608C1.92181 30.2761 0.917898 27.8563 0.915039 25.3323V10.3723C0.917898 7.84831 1.92181 5.42852 3.70654 3.6438C5.49127 1.85907 7.91106 0.855153 10.435 0.852295H25.395C27.919 0.855153 30.3388 1.85907 32.1235 3.6438C33.9083 5.42852 34.9122 7.84831 34.915 10.3723ZM26.075 17.8523C26.075 16.2384 25.5965 14.6607 24.6998 13.3188C23.8032 11.9769 22.5288 10.931 21.0377 10.3134C19.5467 9.69583 17.906 9.53423 16.3231 9.84909C14.7402 10.1639 13.2862 10.9411 12.145 12.0823C11.0039 13.2235 10.2267 14.6775 9.91183 16.2604C9.59698 17.8432 9.75857 19.4839 10.3762 20.975C10.9938 22.466 12.0397 23.7405 13.3816 24.6371C14.7235 25.5337 16.3011 26.0123 17.915 26.0123C20.0785 26.0098 22.1526 25.1494 23.6823 23.6196C25.2121 22.0898 26.0726 20.0157 26.075 17.8523ZM28.795 9.0123C28.795 8.60882 28.6754 8.21441 28.4512 7.87893C28.2271 7.54346 27.9085 7.28198 27.5357 7.12758C27.163 6.97318 26.7528 6.93278 26.3571 7.01149C25.9613 7.09021 25.5978 7.2845 25.3125 7.5698C25.0272 7.8551 24.833 8.21859 24.7542 8.61431C24.6755 9.01003 24.7159 9.42021 24.8703 9.79297C25.0247 10.1657 25.2862 10.4843 25.6217 10.7085C25.9572 10.9327 26.3516 11.0523 26.755 11.0523C27.2961 11.0523 27.815 10.8374 28.1975 10.4548C28.5801 10.0722 28.795 9.55334 28.795 9.0123Z" fill="white"/>
</g>
</svg>
